<svg width="1440" height="221" viewBox="0 0 1440 221" fill="none" xmlns="http://www.w3.org/2000/svg">
<path opacity="0.58" d="M-4.265 159.185L-14.185 166.78L82.845 9.765C85.325 5.73499 87.805 3.09999 90.285 1.86C92.765 0.61999 95.555 -1.4782e-05 98.655 -1.4782e-05H133.995C135.752 -1.4782e-05 136.94 0.309987 137.56 0.929992C138.18 1.44666 138.49 2.22166 138.49 3.25499C138.387 4.49499 137.922 5.47666 137.095 6.2C136.268 6.81999 135.132 7.28499 133.685 7.59499L120.665 9.91999C118.702 10.3333 117.048 11.2633 115.705 12.71C114.362 14.0533 113.432 16.0683 112.915 18.755C111.882 24.025 110.538 30.6383 108.885 38.595C107.232 46.4483 105.423 55.18 103.46 64.79C101.497 74.2967 99.43 84.2683 97.26 94.705C95.09 105.038 92.92 115.32 90.75 125.55C88.6833 135.78 86.72 145.597 84.86 155C83 164.3 81.3467 172.67 79.9 180.11C78.4533 187.447 77.3683 193.388 76.645 197.935C76.1283 200.415 76.2317 202.533 76.955 204.29C77.6783 205.943 79.125 206.977 81.295 207.39L94.625 209.56C95.865 209.87 96.795 210.335 97.415 210.955C98.1383 211.472 98.4483 212.195 98.345 213.125C98.2417 214.365 97.725 215.347 96.795 216.07C95.865 216.69 94.5217 217 92.765 217H22.86C21.1033 217 19.8633 216.69 19.14 216.07C18.4167 215.347 18.055 214.417 18.055 213.28C18.1583 212.143 18.6233 211.265 19.45 210.645C20.38 210.025 21.3617 209.612 22.395 209.405L35.105 207.39C37.4817 206.873 39.445 205.84 40.995 204.29C42.545 202.74 43.63 200.467 44.25 197.47C45.9033 189.617 47.66 181.298 49.52 172.515C51.38 163.628 53.3433 154.432 55.41 144.925C57.4767 135.315 59.5433 125.498 61.61 115.475C63.78 105.452 65.8983 95.3767 67.965 85.25C70.0317 75.02 72.0467 64.8417 74.01 54.715C76.0767 44.5883 77.9367 34.72 79.59 25.11L84.24 22.32L-16.975 187.395C-18.7317 189.978 -20.2817 191.838 -21.625 192.975C-22.865 194.112 -24.415 194.68 -26.275 194.68C-27.825 194.68 -29.065 193.957 -29.995 192.51C-30.925 191.063 -31.5967 189.255 -32.01 187.085C-33.0433 179.335 -34.1283 171.12 -35.265 162.44C-36.4017 153.76 -37.59 144.77 -38.83 135.47C-39.9667 126.17 -41.155 116.715 -42.395 107.105C-43.635 97.495 -44.875 87.9367 -46.115 78.43C-47.355 68.82 -48.6467 59.4167 -49.99 50.22C-51.23 40.92 -52.5217 31.9817 -53.865 23.405L-49.37 22.165L-98.815 183.985C-100.985 191.425 -101.243 197.005 -99.59 200.725C-97.9367 204.342 -94.6817 206.718 -89.825 207.855L-81.61 209.405C-79.2333 210.232 -78.1483 211.42 -78.355 212.97C-78.4583 214.21 -79.0267 215.192 -80.06 215.915C-81.0933 216.638 -82.54 217 -84.4 217H-135.705C-137.565 217 -138.857 216.69 -139.58 216.07C-140.407 215.347 -140.768 214.417 -140.665 213.28C-140.665 212.04 -140.2 211.11 -139.27 210.49C-138.443 209.87 -137.255 209.353 -135.705 208.94L-129.04 207.7C-125.94 206.977 -123.047 205.737 -120.36 203.98C-117.673 202.12 -115.193 199.278 -112.92 195.455C-110.647 191.632 -108.58 186.465 -106.72 179.955L-58.205 20.305C-57.275 17.3083 -57.1717 14.9317 -57.895 13.175C-58.515 11.4183 -60.0133 10.3333 -62.39 9.91999L-75.565 7.59499C-76.9083 7.18166 -77.89 6.66499 -78.51 6.04499C-79.0267 5.42499 -79.2333 4.64999 -79.13 3.71999C-79.0267 2.48 -78.51 1.55 -77.58 0.929992C-76.65 0.309987 -75.3583 -1.4782e-05 -73.705 -1.4782e-05H-36.35C-33.1467 -1.4782e-05 -30.615 0.774984 -28.755 2.32498C-26.7917 3.77166 -25.5 6.40666 -24.88 10.23C-23.8467 17.36 -22.8133 24.8517 -21.78 32.705C-20.7467 40.455 -19.7133 48.4633 -18.68 56.73C-17.5433 64.8933 -16.4067 73.2117 -15.27 81.685C-14.1333 90.1583 -12.9967 98.735 -11.86 107.415C-10.62 116.095 -9.38 124.775 -8.13999 133.455C-6.89999 142.135 -5.60833 150.712 -4.265 159.185ZM143.133 152.365C143.133 152.365 145.096 151.642 149.023 150.195C152.949 148.645 158.013 146.733 164.213 144.46C170.516 142.083 177.181 139.603 184.208 137.02C191.234 134.333 197.899 131.802 204.203 129.425C210.609 127.048 215.828 125.137 219.858 123.69L216.603 127.565C217.429 125.292 218.101 122.553 218.618 119.35C219.134 116.043 219.444 112.065 219.548 107.415C219.548 100.285 218.153 94.4467 215.363 89.9C212.676 85.3533 209.059 83.08 204.513 83.08C199.656 83.08 194.748 84.8883 189.788 88.505C184.828 92.0183 180.126 97.03 175.683 103.54C171.343 109.947 167.571 117.593 164.368 126.48C161.268 135.367 159.149 145.132 158.013 155.775C156.463 171.378 158.426 183.21 163.903 191.27C169.379 199.33 177.439 203.36 188.083 203.36C194.386 203.36 200.379 202.12 206.063 199.64C211.746 197.057 216.913 193.337 221.563 188.48C226.316 183.52 230.243 177.372 233.343 170.035C234.273 168.485 235.099 167.452 235.823 166.935C236.649 166.418 237.528 166.16 238.458 166.16C239.491 166.263 240.266 166.78 240.783 167.71C241.403 168.64 241.454 170.138 240.938 172.205C238.251 181.195 233.859 189.307 227.763 196.54C221.666 203.773 213.968 209.508 204.668 213.745C195.471 217.878 184.724 219.945 172.428 219.945C161.681 219.945 152.691 217.723 145.458 213.28C138.328 208.837 133.161 202.378 129.958 193.905C126.858 185.432 125.876 175.202 127.013 163.215C128.149 151.332 131.094 140.12 135.848 129.58C140.704 118.937 146.853 109.533 154.293 101.37C161.836 93.2067 170.258 86.8 179.558 82.15C188.858 77.5 198.623 75.175 208.853 75.175C216.603 75.175 223.113 76.7767 228.383 79.98C233.653 83.1833 237.631 87.4717 240.318 92.845C243.004 98.115 244.451 103.953 244.658 110.36C244.658 111.703 244.968 112.788 245.588 113.615C246.311 114.442 247.396 114.803 248.843 114.7C249.979 114.7 250.806 114.907 251.323 115.32C251.839 115.733 252.149 116.353 252.253 117.18C252.253 118.213 251.839 119.195 251.013 120.125C250.186 120.952 248.584 121.778 246.208 122.605C243.418 123.535 238.974 125.085 232.878 127.255C226.884 129.322 220.013 131.75 212.263 134.54C204.616 137.33 196.814 140.172 188.858 143.065C180.901 145.855 173.513 148.49 166.693 150.97C159.976 153.347 154.551 155.31 150.418 156.86C146.284 158.307 144.218 159.03 144.218 159.03L143.133 152.365ZM272.107 105.555C271.281 105.142 270.867 104.47 270.867 103.54C270.971 102.507 271.436 101.215 272.262 99.665C276.809 92.225 282.544 86.335 289.467 81.995C296.391 77.655 303.727 75.485 311.477 75.485C316.644 75.485 320.674 76.6733 323.567 79.05C326.461 81.4267 327.907 84.9917 327.907 89.745C327.907 92.9483 327.287 96.7717 326.047 101.215C324.807 105.555 323.154 110.412 321.087 115.785C319.021 121.055 316.747 126.738 314.267 132.835C311.891 138.828 309.566 145.132 307.292 151.745L306.672 148.18C312.459 134.54 318.814 123.07 325.737 113.77C332.661 104.47 339.739 97.03 346.972 91.45C354.206 85.87 361.284 81.84 368.207 79.36C375.131 76.7767 381.382 75.485 386.962 75.485C394.609 75.485 400.034 77.19 403.237 80.6C406.441 84.01 407.887 88.8667 407.577 95.17C407.371 101.37 405.821 108.707 402.927 117.18L381.847 180.575C378.851 189.358 377.766 195.352 378.592 198.555C379.522 201.758 381.331 203.36 384.017 203.36C385.981 203.36 388.099 202.637 390.372 201.19C392.749 199.743 395.642 197.057 399.052 193.13C400.189 191.993 401.119 191.27 401.842 190.96C402.566 190.65 403.289 190.65 404.012 190.96C404.839 191.27 405.201 191.993 405.097 193.13C405.097 194.163 404.684 195.507 403.857 197.16C399.827 204.187 394.506 209.767 387.892 213.9C381.279 217.93 373.787 219.945 365.417 219.945C359.734 219.945 355.394 218.705 352.397 216.225C349.504 213.745 347.954 210.077 347.747 205.22C347.541 200.26 348.626 194.163 351.002 186.93L372.857 121.365C376.371 111.032 377.507 103.902 376.267 99.975C375.131 95.945 371.979 93.93 366.812 93.93C362.989 93.93 358.442 95.325 353.172 98.115C348.006 100.802 342.529 105.038 336.742 110.825C331.059 116.508 325.479 123.845 320.002 132.835C314.629 141.722 309.824 152.365 305.587 164.765C303.417 171.172 301.712 176.442 300.472 180.575C299.232 184.605 298.354 187.86 297.837 190.34C297.424 192.717 297.217 194.732 297.217 196.385C297.217 198.658 297.579 200.518 298.302 201.965C299.129 203.412 299.542 205.22 299.542 207.39C299.542 211.11 297.269 214.158 292.722 216.535C288.279 218.808 282.234 219.945 274.587 219.945C268.801 219.945 265.339 218.137 264.202 214.52C263.066 210.8 263.841 205.117 266.527 197.47L294.272 116.56C297.372 107.57 298.561 101.422 297.837 98.115C297.217 94.8083 295.461 93.155 292.567 93.155C290.707 93.155 288.537 93.8783 286.057 95.325C283.681 96.7717 280.684 99.51 277.067 103.54C275.931 104.47 275.001 105.142 274.277 105.555C273.554 105.865 272.831 105.865 272.107 105.555ZM458.444 89.435L445.734 87.42C444.597 87.0067 443.771 86.49 443.254 85.87C442.737 85.1467 442.479 84.32 442.479 83.39C442.479 82.2533 442.944 81.3233 443.874 80.6C444.907 79.8767 446.251 79.515 447.904 79.515H462.939C464.592 79.515 466.039 79.2567 467.279 78.74C468.519 78.12 469.759 77.1383 470.999 75.795L492.854 52.235C493.681 51.0983 494.559 50.3233 495.489 49.91C496.522 49.4967 497.607 49.29 498.744 49.29C499.881 49.29 500.759 49.6 501.379 50.22C501.999 50.84 502.309 51.77 502.309 53.01C502.309 53.7333 502.206 54.715 501.999 55.955C501.792 57.195 501.431 58.6933 500.914 60.45L466.194 178.87C463.301 188.583 462.526 195.093 463.869 198.4C465.316 201.603 468.312 203.205 472.859 203.205C477.096 203.205 481.229 202.017 485.259 199.64C489.289 197.16 493.577 193.182 498.124 187.705C498.951 186.672 499.674 186 500.294 185.69C500.914 185.277 501.534 185.122 502.154 185.225C502.981 185.225 503.549 185.587 503.859 186.31C504.272 186.93 504.324 187.808 504.014 188.945C502.774 192.562 500.604 196.23 497.504 199.95C494.507 203.567 490.787 206.925 486.344 210.025C482.004 213.022 477.096 215.398 471.619 217.155C466.142 219.015 460.304 219.945 454.104 219.945C447.491 219.945 442.427 218.653 438.914 216.07C435.504 213.383 433.592 209.353 433.179 203.98C432.766 198.607 433.747 191.838 436.124 183.675L460.769 100.75C462.009 96.8233 462.422 94.085 462.009 92.535C461.699 90.8817 460.511 89.8483 458.444 89.435ZM484.329 88.195L487.274 79.825H525.094C527.574 79.825 528.814 80.8583 528.814 82.925C528.814 84.5783 528.091 85.87 526.644 86.8C525.197 87.73 523.234 88.195 520.754 88.195H484.329ZM609.709 75.33C621.386 75.7433 631.306 78.7917 639.469 84.475C647.633 90.055 653.471 98.0117 656.984 108.345C660.601 118.575 661.221 130.82 658.844 145.08C657.088 155.827 653.729 165.85 648.769 175.15C643.913 184.347 637.816 192.355 630.479 199.175C623.246 205.892 615.031 211.11 605.834 214.83C596.741 218.447 587.028 220.152 576.694 219.945C565.431 219.738 555.666 216.948 547.399 211.575C539.133 206.098 533.088 198.245 529.264 188.015C525.544 177.785 524.873 165.488 527.249 151.125C529.109 139.758 532.519 129.373 537.479 119.97C542.543 110.567 548.743 102.455 556.079 95.635C563.519 88.815 571.786 83.6483 580.879 80.135C589.973 76.6217 599.583 75.02 609.709 75.33ZM577.159 211.575C581.499 211.782 585.788 210.645 590.024 208.165C594.364 205.685 598.549 202.12 602.579 197.47C606.609 192.717 610.278 187.188 613.584 180.885C616.994 174.582 619.939 167.71 622.419 160.27C624.899 152.727 626.811 144.873 628.154 136.71C630.324 124.93 630.893 115.217 629.859 107.57C628.826 99.9233 626.553 94.1883 623.039 90.365C619.526 86.4383 615.083 84.2683 609.709 83.855C605.266 83.4417 600.874 84.475 596.534 86.955C592.194 89.3317 587.958 92.845 583.824 97.495C579.794 102.145 576.023 107.673 572.509 114.08C569.099 120.487 566.103 127.565 563.519 135.315C561.039 142.962 559.128 150.97 557.784 159.34C555.614 171.327 555.098 181.143 556.234 188.79C557.371 196.333 559.748 201.913 563.364 205.53C567.084 209.147 571.683 211.162 577.159 211.575ZM684.262 105.555C683.539 105.142 683.177 104.47 683.177 103.54C683.28 102.507 683.694 101.215 684.417 99.665C687.517 94.705 691.134 90.4167 695.267 86.8C699.4 83.1833 703.844 80.3933 708.597 78.43C713.454 76.4667 718.362 75.485 723.322 75.485C728.385 75.485 732.26 76.725 734.947 79.205C737.634 81.5817 738.977 85.095 738.977 89.745C738.977 93.5683 738.254 97.9083 736.807 102.765C735.36 107.622 733.552 112.943 731.382 118.73C729.315 124.413 727.145 130.407 724.872 136.71C722.702 143.013 720.842 149.523 719.292 156.24L717.432 155.93C720.945 144.15 725.182 133.352 730.142 123.535C735.102 113.718 740.527 105.245 746.417 98.115C752.307 90.8817 758.352 85.3017 764.552 81.375C770.855 77.4483 777.107 75.485 783.307 75.485C790.024 75.485 795.035 77.5517 798.342 81.685C801.649 85.8183 803.147 91.0883 802.837 97.495C802.527 102.248 801.442 106.33 799.582 109.74C797.825 113.047 795.552 115.63 792.762 117.49C790.075 119.247 787.079 120.125 783.772 120.125C780.362 120.125 777.727 119.298 775.867 117.645C774.007 115.992 773.077 113.873 773.077 111.29C773.077 109.12 773.335 107.105 773.852 105.245C774.472 103.282 774.782 101.318 774.782 99.355C774.782 96.9783 774.317 95.1183 773.387 93.775C772.457 92.4317 770.907 91.76 768.737 91.76C764.397 91.76 759.334 94.55 753.547 100.13C747.76 105.607 741.819 113.873 735.722 124.93C729.729 135.883 724.149 149.627 718.982 166.16C716.915 172.877 715.262 178.405 714.022 182.745C712.885 187.085 712.317 190.96 712.317 194.37C712.317 196.643 712.782 198.452 713.712 199.795C714.642 201.035 715.572 202.172 716.502 203.205C717.535 204.238 718.052 205.633 718.052 207.39C718.052 209.353 716.864 211.317 714.487 213.28C712.214 215.243 708.959 216.845 704.722 218.085C700.485 219.325 695.577 219.945 689.997 219.945C685.967 219.945 683.022 219.067 681.162 217.31C679.302 215.553 678.424 212.918 678.527 209.405C678.63 205.788 679.56 201.293 681.317 195.92L706.737 116.56C709.63 107.57 710.715 101.422 709.992 98.115C709.372 94.8083 707.615 93.155 704.722 93.155C702.862 93.155 700.744 93.8783 698.367 95.325C695.99 96.7717 692.942 99.51 689.222 103.54C688.085 104.573 687.155 105.245 686.432 105.555C685.709 105.865 684.985 105.865 684.262 105.555ZM956.565 153.295L991.285 36.425C993.559 28.365 993.817 22.165 992.06 17.825C990.407 13.3817 986.945 10.54 981.675 9.29999L974.7 8.05999C972.84 7.43999 971.497 6.81999 970.67 6.2C969.947 5.57999 969.585 4.75333 969.585 3.71999C969.585 2.58332 970.05 1.70499 970.98 1.085C972.014 0.361656 973.409 -1.4782e-05 975.165 -1.4782e-05H1030.97C1032.41 -1.4782e-05 1033.5 0.309987 1034.22 0.929992C1035.05 1.44666 1035.46 2.22166 1035.46 3.25499C1035.46 4.39166 1035.05 5.32166 1034.22 6.04499C1033.5 6.66499 1032.15 7.28499 1030.19 7.90499L1022.13 9.60999C1017.27 10.85 1013.04 13.5367 1009.42 17.67C1005.91 21.8033 1002.91 28.2617 1000.43 37.045L965.865 153.605C961.319 169.002 955.377 181.66 948.04 191.58C940.704 201.397 931.765 208.682 921.225 213.435C910.685 218.188 898.234 220.565 883.87 220.565C870.954 220.565 860.259 218.395 851.785 214.055C843.312 209.715 836.957 203.773 832.72 196.23C828.587 188.687 826.572 180.11 826.675 170.5C826.675 166.78 827.192 161.975 828.225 156.085C829.362 150.195 830.705 143.943 832.255 137.33C833.909 130.717 835.562 124.465 837.215 118.575L865.27 19.22C866.097 16.74 866.097 14.6217 865.27 12.865C864.444 11.1083 862.997 10.0233 860.93 9.60999L848.995 7.59499C847.342 6.97498 846.205 6.40665 845.585 5.88998C844.965 5.26999 844.655 4.44333 844.655 3.41C844.655 2.37666 845.12 1.55 846.05 0.929992C846.98 0.309987 848.272 -1.4782e-05 849.925 -1.4782e-05H920.45C923.55 -1.4782e-05 925.1 0.981655 925.1 2.94499C925.1 3.97833 924.687 4.90833 923.86 5.73499C923.034 6.45832 921.639 7.07832 919.675 7.59499L906.655 10.075C904.382 10.4883 902.574 11.47 901.23 13.02C899.99 14.4667 898.854 16.9467 897.82 20.46L870.075 118.73C866.562 131.853 863.927 142.703 862.17 151.28C860.517 159.753 859.639 166.832 859.535 172.515C859.432 184.915 862.739 194.215 869.455 200.415C876.275 206.615 885.524 209.715 897.2 209.715C910.53 209.715 922.259 205.323 932.385 196.54C942.615 187.653 950.675 173.238 956.565 153.295ZM1012.29 105.555C1011.47 105.142 1011.05 104.47 1011.05 103.54C1011.16 102.507 1011.62 101.215 1012.45 99.665C1016.99 92.225 1022.73 86.335 1029.65 81.995C1036.58 77.655 1043.91 75.485 1051.66 75.485C1056.83 75.485 1060.86 76.6733 1063.75 79.05C1066.65 81.4267 1068.09 84.9917 1068.09 89.745C1068.09 92.9483 1067.47 96.7717 1066.23 101.215C1064.99 105.555 1063.34 110.412 1061.27 115.785C1059.21 121.055 1056.93 126.738 1054.45 132.835C1052.08 138.828 1049.75 145.132 1047.48 151.745L1046.86 148.18C1052.64 134.54 1059 123.07 1065.92 113.77C1072.85 104.47 1079.92 97.03 1087.16 91.45C1094.39 85.87 1101.47 81.84 1108.39 79.36C1115.32 76.7767 1121.57 75.485 1127.15 75.485C1134.79 75.485 1140.22 77.19 1143.42 80.6C1146.63 84.01 1148.07 88.8667 1147.76 95.17C1147.56 101.37 1146.01 108.707 1143.11 117.18L1122.03 180.575C1119.04 189.358 1117.95 195.352 1118.78 198.555C1119.71 201.758 1121.52 203.36 1124.2 203.36C1126.17 203.36 1128.28 202.637 1130.56 201.19C1132.93 199.743 1135.83 197.057 1139.24 193.13C1140.37 191.993 1141.3 191.27 1142.03 190.96C1142.75 190.65 1143.47 190.65 1144.2 190.96C1145.02 191.27 1145.39 191.993 1145.28 193.13C1145.28 194.163 1144.87 195.507 1144.04 197.16C1140.01 204.187 1134.69 209.767 1128.08 213.9C1121.46 217.93 1113.97 219.945 1105.6 219.945C1099.92 219.945 1095.58 218.705 1092.58 216.225C1089.69 213.745 1088.14 210.077 1087.93 205.22C1087.73 200.26 1088.81 194.163 1091.19 186.93L1113.04 121.365C1116.56 111.032 1117.69 103.902 1116.45 99.975C1115.32 95.945 1112.16 93.93 1107 93.93C1103.17 93.93 1098.63 95.325 1093.36 98.115C1088.19 100.802 1082.71 105.038 1076.93 110.825C1071.24 116.508 1065.66 123.845 1060.19 132.835C1054.81 141.722 1050.01 152.365 1045.77 164.765C1043.6 171.172 1041.9 176.442 1040.66 180.575C1039.42 184.605 1038.54 187.86 1038.02 190.34C1037.61 192.717 1037.4 194.732 1037.4 196.385C1037.4 198.658 1037.76 200.518 1038.49 201.965C1039.31 203.412 1039.73 205.22 1039.73 207.39C1039.73 211.11 1037.45 214.158 1032.91 216.535C1028.46 218.808 1022.42 219.945 1014.77 219.945C1008.99 219.945 1005.52 218.137 1004.39 214.52C1003.25 210.8 1004.03 205.117 1006.71 197.47L1034.46 116.56C1037.56 107.57 1038.75 101.422 1038.02 98.115C1037.4 94.8083 1035.65 93.155 1032.75 93.155C1030.89 93.155 1028.72 93.8783 1026.24 95.325C1023.87 96.7717 1020.87 99.51 1017.25 103.54C1016.12 104.47 1015.19 105.142 1014.46 105.555C1013.74 105.865 1013.02 105.865 1012.29 105.555ZM1208.99 180.575C1206 189.152 1204.91 195.093 1205.74 198.4C1206.56 201.603 1208.37 203.205 1211.16 203.205C1213.13 203.205 1215.24 202.482 1217.52 201.035C1219.89 199.588 1222.79 196.953 1226.2 193.13C1227.33 191.993 1228.26 191.27 1228.99 190.96C1229.71 190.65 1230.43 190.65 1231.16 190.96C1231.98 191.27 1232.35 191.993 1232.24 193.13C1232.24 194.163 1231.83 195.507 1231 197.16C1226.97 204.187 1221.6 209.767 1214.88 213.9C1208.27 217.93 1200.83 219.945 1192.56 219.945C1186.88 219.945 1182.54 218.705 1179.54 216.225C1176.55 213.642 1174.94 209.922 1174.74 205.065C1174.63 200.105 1175.82 194.008 1178.3 186.775L1203.1 116.56C1206.31 107.673 1207.55 101.577 1206.82 98.27C1206.2 94.86 1204.39 93.155 1201.4 93.155C1199.54 93.155 1197.42 93.8783 1195.04 95.325C1192.67 96.7717 1189.62 99.51 1185.9 103.54C1184.76 104.47 1183.83 105.142 1183.11 105.555C1182.38 105.865 1181.66 105.865 1180.94 105.555C1180.21 105.142 1179.85 104.47 1179.85 103.54C1179.96 102.507 1180.37 101.215 1181.09 99.665C1185.64 92.225 1191.27 86.335 1197.99 81.995C1204.81 77.655 1211.99 75.485 1219.53 75.485C1224.8 75.485 1228.94 76.7767 1231.93 79.36C1235.03 81.84 1236.79 85.6633 1237.2 90.83C1237.62 95.9967 1236.43 102.455 1233.64 110.205L1208.99 180.575ZM1229.3 48.98C1224.03 48.98 1219.95 47.5333 1217.05 44.64C1214.26 41.7467 1213.07 38.2333 1213.49 34.1C1213.69 30.2767 1214.93 26.505 1217.21 22.785C1219.58 18.9617 1222.68 15.81 1226.51 13.33C1230.33 10.7467 1234.57 9.45498 1239.22 9.45498C1245.11 9.45498 1249.34 10.9017 1251.93 13.795C1254.51 16.6883 1255.65 20.2533 1255.34 24.49C1255.13 28.6233 1253.84 32.55 1251.46 36.27C1249.19 39.99 1246.14 43.0383 1242.32 45.415C1238.49 47.7917 1234.15 48.98 1229.3 48.98ZM1340.51 75.33C1352.19 75.7433 1362.11 78.7917 1370.27 84.475C1378.43 90.055 1384.27 98.0117 1387.79 108.345C1391.4 118.575 1392.02 130.82 1389.65 145.08C1387.89 155.827 1384.53 165.85 1379.57 175.15C1374.71 184.347 1368.62 192.355 1361.28 199.175C1354.05 205.892 1345.83 211.11 1336.64 214.83C1327.54 218.447 1317.83 220.152 1307.5 219.945C1296.23 219.738 1286.47 216.948 1278.2 211.575C1269.93 206.098 1263.89 198.245 1260.07 188.015C1256.35 177.785 1255.67 165.488 1258.05 151.125C1259.91 139.758 1263.32 129.373 1268.28 119.97C1273.34 110.567 1279.54 102.455 1286.88 95.635C1294.32 88.815 1302.59 83.6483 1311.68 80.135C1320.77 76.6217 1330.38 75.02 1340.51 75.33ZM1307.96 211.575C1312.3 211.782 1316.59 210.645 1320.83 208.165C1325.17 205.685 1329.35 202.12 1333.38 197.47C1337.41 192.717 1341.08 187.188 1344.39 180.885C1347.8 174.582 1350.74 167.71 1353.22 160.27C1355.7 152.727 1357.61 144.873 1358.96 136.71C1361.13 124.93 1361.69 115.217 1360.66 107.57C1359.63 99.9233 1357.35 94.1883 1353.84 90.365C1350.33 86.4383 1345.88 84.2683 1340.51 83.855C1336.07 83.4417 1331.68 84.475 1327.34 86.955C1323 89.3317 1318.76 92.845 1314.63 97.495C1310.6 102.145 1306.82 107.673 1303.31 114.08C1299.9 120.487 1296.9 127.565 1294.32 135.315C1291.84 142.962 1289.93 150.97 1288.59 159.34C1286.42 171.327 1285.9 181.143 1287.04 188.79C1288.17 196.333 1290.55 201.913 1294.17 205.53C1297.89 209.147 1302.48 211.162 1307.96 211.575ZM1415.84 105.555C1415.01 105.142 1414.6 104.47 1414.6 103.54C1414.7 102.507 1415.17 101.215 1415.99 99.665C1420.54 92.225 1426.27 86.335 1433.2 81.995C1440.12 77.655 1447.46 75.485 1455.21 75.485C1460.37 75.485 1464.4 76.6733 1467.3 79.05C1470.19 81.4267 1471.64 84.9917 1471.64 89.745C1471.64 92.9483 1471.02 96.7717 1469.78 101.215C1468.54 105.555 1466.88 110.412 1464.82 115.785C1462.75 121.055 1460.48 126.738 1458 132.835C1455.62 138.828 1453.3 145.132 1451.02 151.745L1450.4 148.18C1456.19 134.54 1462.54 123.07 1469.47 113.77C1476.39 104.47 1483.47 97.03 1490.7 91.45C1497.94 85.87 1505.01 81.84 1511.94 79.36C1518.86 76.7767 1525.11 75.485 1530.69 75.485C1538.34 75.485 1543.76 77.19 1546.97 80.6C1550.17 84.01 1551.62 88.8667 1551.31 95.17C1551.1 101.37 1549.55 108.707 1546.66 117.18L1525.58 180.575C1522.58 189.358 1521.5 195.352 1522.32 198.555C1523.25 201.758 1525.06 203.36 1527.75 203.36C1529.71 203.36 1531.83 202.637 1534.1 201.19C1536.48 199.743 1539.37 197.057 1542.78 193.13C1543.92 191.993 1544.85 191.27 1545.57 190.96C1546.3 190.65 1547.02 190.65 1547.74 190.96C1548.57 191.27 1548.93 191.993 1548.83 193.13C1548.83 194.163 1548.41 195.507 1547.59 197.16C1543.56 204.187 1538.24 209.767 1531.62 213.9C1525.01 217.93 1517.52 219.945 1509.15 219.945C1503.46 219.945 1499.12 218.705 1496.13 216.225C1493.23 213.745 1491.68 210.077 1491.48 205.22C1491.27 200.26 1492.36 194.163 1494.73 186.93L1516.59 121.365C1520.1 111.032 1521.24 103.902 1520 99.975C1518.86 95.945 1515.71 93.93 1510.54 93.93C1506.72 93.93 1502.17 95.325 1496.9 98.115C1491.74 100.802 1486.26 105.038 1480.47 110.825C1474.79 116.508 1469.21 123.845 1463.73 132.835C1458.36 141.722 1453.55 152.365 1449.32 164.765C1447.15 171.172 1445.44 176.442 1444.2 180.575C1442.96 184.605 1442.08 187.86 1441.57 190.34C1441.15 192.717 1440.95 194.732 1440.95 196.385C1440.95 198.658 1441.31 200.518 1442.03 201.965C1442.86 203.412 1443.27 205.22 1443.27 207.39C1443.27 211.11 1441 214.158 1436.45 216.535C1432.01 218.808 1425.96 219.945 1418.32 219.945C1412.53 219.945 1409.07 218.137 1407.93 214.52C1406.8 210.8 1407.57 205.117 1410.26 197.47L1438 116.56C1441.1 107.57 1442.29 101.422 1441.57 98.115C1440.95 94.8083 1439.19 93.155 1436.3 93.155C1434.44 93.155 1432.27 93.8783 1429.79 95.325C1427.41 96.7717 1424.41 99.51 1420.8 103.54C1419.66 104.47 1418.73 105.142 1418.01 105.555C1417.28 105.865 1416.56 105.865 1415.84 105.555Z" fill="#171717"/>
</svg>
